<svg width="170" height="73" viewBox="0 0 170 73" fill="none" xmlns="http://www.w3.org/2000/svg">
<path d="M65.678 33.339C65.678 27.5363 63.9573 21.8639 60.7335 17.0391C57.5097 12.2144 52.9276 8.45391 47.5666 6.23331C42.2056 4.01271 36.3065 3.4317 30.6153 4.56375C24.9241 5.69581 19.6963 8.49008 15.5932 12.5932C11.4901 16.6963 8.69581 21.9241 7.56375 27.6153C6.4317 33.3065 7.01271 39.2056 9.23331 44.5666C11.4539 49.9276 15.2144 54.5097 20.0391 57.7335C24.8639 60.9573 30.5363 62.678 36.339 62.678V57.2196C31.629 57.2196 27.0247 55.7568 23.1084 53.14C19.1922 50.5232 16.1398 46.8039 14.3374 42.4524C12.5349 38.1009 12.0633 33.3126 12.9822 28.6931C13.9011 24.0735 16.1692 19.8302 19.4997 16.4997C22.8302 13.1692 27.0735 10.9011 31.6931 9.98219C36.3126 9.06331 41.1009 9.53491 45.4524 11.3374C49.8039 13.1398 53.5232 16.1922 56.14 20.1084C58.7568 24.0247 60.2196 28.629 60.2196 33.339H65.678Z" fill="#012F6D"/>
<path d="M55.0341 33.339C55.0341 29.6415 53.9377 26.027 51.8834 22.9526C49.8292 19.8782 46.9094 17.482 43.4933 16.067C40.0772 14.652 36.3183 14.2818 32.6918 15.0032C29.0653 15.7245 25.7342 17.505 23.1196 20.1196C20.505 22.7342 18.7245 26.0653 18.0032 29.6918C17.2818 33.3183 17.652 37.0772 19.067 40.4933C20.482 43.9094 22.8782 46.8292 25.9526 48.8834C29.027 50.9377 32.6415 52.0341 36.339 52.0341V46.5265C33.7308 46.5265 31.1811 45.7531 29.0125 44.304C26.8438 42.8549 25.1535 40.7953 24.1554 38.3857C23.1573 35.976 22.8961 33.3244 23.405 30.7663C23.9138 28.2082 25.1698 25.8584 27.0141 24.0141C28.8584 22.1698 31.2082 20.9138 33.7663 20.405C36.3244 19.8961 38.976 20.1573 41.3857 21.1554C43.7953 22.1535 45.8549 23.8438 47.304 26.0125C48.7531 28.1811 49.5265 30.7308 49.5265 33.339H55.0341Z" fill="#012F6D"/>
<path d="M44.5267 33.2708C44.5267 31.6649 44.0505 30.0951 43.1583 28.7599C42.2661 27.4247 40.998 26.384 39.5144 25.7694C38.0308 25.1549 36.3983 24.9941 34.8232 25.3074C33.2482 25.6207 31.8015 26.394 30.666 27.5295C29.5305 28.665 28.7572 30.1118 28.4439 31.6868C28.1306 33.2618 28.2914 34.8943 28.9059 36.378C29.5204 37.8616 30.5611 39.1297 31.8964 40.0218C33.2316 40.914 34.8014 41.3902 36.4073 41.3902V33.2708H44.5267Z" fill="#012F6D"/>
<path d="M36.339 33.2026H44.5267V41.3902H36.339V33.2026Z" fill="#012F6D"/>
<path d="M49.5757 33.339H55.0341V52.0341H49.5757V33.339Z" fill="#012F6D"/>
<path d="M36.339 46.5757H49.5757V52.0341H36.339V46.5757Z" fill="#012F6D"/>
<path d="M36.339 57.2196H49.7122V62.678H36.339V57.2196Z" fill="#012F6D"/>
<path d="M60.2196 33.339H65.678V46.7122H60.2196V33.339Z" fill="#012F6D"/>
<path d="M60.2196 51.8977H65.678V57.3561H60.2196V51.8977Z" fill="#012F6D"/>
<path d="M54.8977 57.2196H60.3561V62.678H54.8977V57.2196Z" fill="#012F6D"/>
<path d="M65.5416 62.5416H71V68H65.5416V62.5416Z" fill="#012F6D"/>
<path d="M86.52 38.68H78.528L76.92 43H75.744L81.936 26.536H83.136L89.304 43H88.128L86.52 38.68ZM86.184 37.768L82.536 27.952L78.864 37.768H86.184ZM96.3589 43.192C94.9029 43.192 93.7109 42.872 92.7829 42.232C91.8709 41.592 91.3589 40.68 91.2469 39.496H92.3509C92.4309 40.344 92.8149 41.016 93.5029 41.512C94.2069 42.008 95.1589 42.256 96.3589 42.256C97.3509 42.256 98.1349 42.008 98.7109 41.512C99.3029 41 99.5989 40.376 99.5989 39.64C99.5989 39.128 99.4389 38.712 99.1189 38.392C98.8149 38.056 98.4309 37.8 97.9669 37.624C97.5029 37.448 96.8709 37.256 96.0709 37.048C95.1109 36.792 94.3349 36.544 93.7429 36.304C93.1509 36.048 92.6469 35.672 92.2309 35.176C91.8149 34.68 91.6069 34.016 91.6069 33.184C91.6069 32.576 91.7909 32.016 92.1589 31.504C92.5269 30.976 93.0389 30.56 93.6949 30.256C94.3509 29.952 95.0949 29.8 95.9269 29.8C97.2869 29.8 98.3829 30.144 99.2149 30.832C100.063 31.504 100.519 32.44 100.583 33.64H99.5029C99.4549 32.776 99.1189 32.072 98.4949 31.528C97.8709 30.984 97.0069 30.712 95.9029 30.712C94.9749 30.712 94.2069 30.952 93.5989 31.432C92.9909 31.912 92.6869 32.496 92.6869 33.184C92.6869 33.792 92.8549 34.288 93.1909 34.672C93.5429 35.04 93.9669 35.328 94.4629 35.536C94.9749 35.728 95.6469 35.936 96.4789 36.16C97.3909 36.4 98.1189 36.64 98.6629 36.88C99.2229 37.104 99.6949 37.44 100.079 37.888C100.463 38.32 100.655 38.904 100.655 39.64C100.655 40.312 100.471 40.92 100.103 41.464C99.7349 42.008 99.2229 42.432 98.5669 42.736C97.9109 43.04 97.1749 43.192 96.3589 43.192ZM108.289 43.192C106.833 43.192 105.641 42.872 104.713 42.232C103.801 41.592 103.289 40.68 103.177 39.496H104.281C104.361 40.344 104.745 41.016 105.433 41.512C106.137 42.008 107.089 42.256 108.289 42.256C109.281 42.256 110.065 42.008 110.641 41.512C111.233 41 111.529 40.376 111.529 39.64C111.529 39.128 111.369 38.712 111.049 38.392C110.745 38.056 110.361 37.8 109.897 37.624C109.433 37.448 108.801 37.256 108.001 37.048C107.041 36.792 106.265 36.544 105.673 36.304C105.081 36.048 104.577 35.672 104.161 35.176C103.745 34.68 103.537 34.016 103.537 33.184C103.537 32.576 103.721 32.016 104.089 31.504C104.457 30.976 104.969 30.56 105.625 30.256C106.281 29.952 107.025 29.8 107.857 29.8C109.217 29.8 110.313 30.144 111.145 30.832C111.993 31.504 112.449 32.44 112.513 33.64H111.433C111.385 32.776 111.049 32.072 110.425 31.528C109.801 30.984 108.937 30.712 107.833 30.712C106.905 30.712 106.137 30.952 105.529 31.432C104.921 31.912 104.617 32.496 104.617 33.184C104.617 33.792 104.785 34.288 105.121 34.672C105.473 35.04 105.897 35.328 106.393 35.536C106.905 35.728 107.577 35.936 108.409 36.16C109.321 36.4 110.049 36.64 110.593 36.88C111.153 37.104 111.625 37.44 112.009 37.888C112.393 38.32 112.585 38.904 112.585 39.64C112.585 40.312 112.401 40.92 112.033 41.464C111.665 42.008 111.153 42.432 110.497 42.736C109.841 43.04 109.105 43.192 108.289 43.192ZM116.426 27.064C116.17 27.064 115.954 26.984 115.778 26.824C115.602 26.648 115.514 26.416 115.514 26.128C115.514 25.856 115.602 25.632 115.778 25.456C115.954 25.28 116.17 25.192 116.426 25.192C116.682 25.192 116.898 25.28 117.074 25.456C117.25 25.632 117.338 25.856 117.338 26.128C117.338 26.416 117.25 26.648 117.074 26.824C116.898 26.984 116.682 27.064 116.426 27.064ZM116.954 29.968V43H115.874V29.968H116.954ZM125.257 43.192C123.801 43.192 122.609 42.872 121.681 42.232C120.769 41.592 120.257 40.68 120.145 39.496H121.249C121.329 40.344 121.713 41.016 122.401 41.512C123.105 42.008 124.057 42.256 125.257 42.256C126.249 42.256 127.033 42.008 127.609 41.512C128.201 41 128.497 40.376 128.497 39.64C128.497 39.128 128.337 38.712 128.017 38.392C127.713 38.056 127.329 37.8 126.865 37.624C126.401 37.448 125.769 37.256 124.969 37.048C124.009 36.792 123.233 36.544 122.641 36.304C122.049 36.048 121.545 35.672 121.129 35.176C120.713 34.68 120.505 34.016 120.505 33.184C120.505 32.576 120.689 32.016 121.057 31.504C121.425 30.976 121.937 30.56 122.593 30.256C123.249 29.952 123.993 29.8 124.825 29.8C126.185 29.8 127.281 30.144 128.113 30.832C128.961 31.504 129.417 32.44 129.481 33.64H128.401C128.353 32.776 128.017 32.072 127.393 31.528C126.769 30.984 125.905 30.712 124.801 30.712C123.873 30.712 123.105 30.952 122.497 31.432C121.889 31.912 121.585 32.496 121.585 33.184C121.585 33.792 121.753 34.288 122.089 34.672C122.441 35.04 122.865 35.328 123.361 35.536C123.873 35.728 124.545 35.936 125.377 36.16C126.289 36.4 127.017 36.64 127.561 36.88C128.121 37.104 128.593 37.44 128.977 37.888C129.361 38.32 129.553 38.904 129.553 39.64C129.553 40.312 129.369 40.92 129.001 41.464C128.633 42.008 128.121 42.432 127.465 42.736C126.809 43.04 126.073 43.192 125.257 43.192ZM134.451 30.904V39.52C134.451 40.48 134.627 41.144 134.979 41.512C135.331 41.864 135.955 42.04 136.851 42.04H138.315V43H136.683C135.547 43 134.707 42.736 134.163 42.208C133.635 41.664 133.371 40.768 133.371 39.52V30.904H131.403V29.968H133.371V26.656H134.451V29.968H138.315V30.904H134.451ZM141.715 27.064C141.459 27.064 141.243 26.984 141.067 26.824C140.891 26.648 140.803 26.416 140.803 26.128C140.803 25.856 140.891 25.632 141.067 25.456C141.243 25.28 141.459 25.192 141.715 25.192C141.971 25.192 142.187 25.28 142.363 25.456C142.539 25.632 142.627 25.856 142.627 26.128C142.627 26.416 142.539 26.648 142.363 26.824C142.187 26.984 141.971 27.064 141.715 27.064ZM142.243 29.968V43H141.163V29.968H142.243ZM151.938 43.192C150.722 43.192 149.626 42.92 148.65 42.376C147.674 41.832 146.906 41.056 146.346 40.048C145.802 39.024 145.53 37.832 145.53 36.472C145.53 35.128 145.81 33.952 146.37 32.944C146.93 31.92 147.698 31.144 148.674 30.616C149.666 30.072 150.77 29.8 151.986 29.8C153.202 29.8 154.298 30.072 155.274 30.616C156.25 31.144 157.01 31.912 157.554 32.92C158.114 33.928 158.394 35.112 158.394 36.472C158.394 37.832 158.114 39.024 157.554 40.048C156.994 41.056 156.218 41.832 155.226 42.376C154.25 42.92 153.154 43.192 151.938 43.192ZM151.938 42.232C152.882 42.232 153.762 42.024 154.578 41.608C155.41 41.176 156.074 40.528 156.57 39.664C157.066 38.8 157.314 37.736 157.314 36.472C157.314 35.224 157.066 34.168 156.57 33.304C156.074 32.44 155.418 31.8 154.602 31.384C153.786 30.952 152.906 30.736 151.962 30.736C151.018 30.736 150.138 30.952 149.322 31.384C148.522 31.8 147.874 32.44 147.378 33.304C146.882 34.168 146.634 35.224 146.634 36.472C146.634 37.736 146.874 38.8 147.354 39.664C147.85 40.528 148.498 41.176 149.298 41.608C150.114 42.024 150.994 42.232 151.938 42.232Z" fill="#002F6C"/>
</svg>
